<svg xmlns="http://www.w3.org/2000/svg" width="260" height="109" viewBox="0 0 260 109">
  <g id="full-logo" transform="translate(-140 -2653)">
    <g id="Rectangle_11" data-name="Rectangle 11" transform="translate(140 2653)" fill="#5457a6" stroke="#707070" stroke-width="1">
      <rect width="260" height="109" stroke="none"/>
      <rect x="0.5" y="0.5" width="259" height="108" fill="none"/>
    </g>
    <g id="Group_11" data-name="Group 11" transform="translate(-33 -26)">
      <g id="Animals" transform="translate(204 2696)">
        <g id="Mouse" transform="translate(0.014 51.062)">
          <path id="Subtraction_1" data-name="Subtraction 1" d="M-1368.67,678.084H-1401V659.609l19.112,9.525c-.156-.134-.308-.275-.452-.419a8,8,0,0,1-1.722-2.554,7.985,7.985,0,0,1-.631-3.127,7.981,7.981,0,0,1,.631-3.127,8.006,8.006,0,0,1,1.722-2.554,8.01,8.01,0,0,1,2.554-1.722,7.981,7.981,0,0,1,3.127-.631,7.984,7.984,0,0,1,3.127.631,8.009,8.009,0,0,1,2.554,1.722,8,8,0,0,1,1.722,2.554,7.976,7.976,0,0,1,.631,3.127,7.981,7.981,0,0,1-.631,3.127,8,8,0,0,1-1.722,2.554,8.007,8.007,0,0,1-2.554,1.722,7.989,7.989,0,0,1-3.127.631,8.076,8.076,0,0,1-1.715-.183l10.126,5.047a1.228,1.228,0,0,1,.567,1.2,1.221,1.221,0,0,1-.4.668,1.063,1.063,0,0,1-.589.283h0Zm-13.784-6.862a2.243,2.243,0,0,0-2.24,2.24,2.243,2.243,0,0,0,2.24,2.24,2.243,2.243,0,0,0,2.24-2.24,2.243,2.243,0,0,0-2.236-2.24Z" transform="translate(1401 -655)" fill="#eb5"/>
          <circle id="Ellipse_1" data-name="Ellipse 1" cx="7.03" cy="7.03" r="7.03" transform="translate(18.393 1.004)" fill="#ed96ad"/>
        </g>
        <g id="Cat" transform="translate(39.419 41.715)">
          <path id="Cat-2" data-name="Cat" d="M-1361.6,687.445h-25.5v-.052c-.384.035-.774.052-1.159.052a12.665,12.665,0,0,1-4.961-1,12.742,12.742,0,0,1-2.165-1.175,12.85,12.85,0,0,1-1.886-1.557,12.831,12.831,0,0,1-1.557-1.886A12.771,12.771,0,0,1-1400,679.66a12.668,12.668,0,0,1-1-4.961,12.665,12.665,0,0,1,1-4.961,12.747,12.747,0,0,1,1.175-2.165,12.848,12.848,0,0,1,1.556-1.886,12.847,12.847,0,0,1,1.886-1.556,12.751,12.751,0,0,1,2.165-1.175,12.666,12.666,0,0,1,4.961-1c.386,0,.776.017,1.159.052v-7l14.986,6.952h10.506Zm-37.08-13.9,2.318,4.635,2.318-4.635Zm11.587-4.558a2.243,2.243,0,0,0-2.24,2.24,2.243,2.243,0,0,0,2.24,2.24,2.243,2.243,0,0,0,2.24-2.24,2.243,2.243,0,0,0-.658-1.589,2.243,2.243,0,0,0-1.589-.656Z" transform="translate(1401 -655)" fill="#f1e6d1"/>
        </g>
        <g id="Vogel" transform="translate(0 11.588)">
          <path id="Subtraction_2" data-name="Subtraction 2" d="M-1352.47,682.811h-43.412a4.394,4.394,0,0,1-1.082-.241,6.106,6.106,0,0,1-1.1-.5,6.692,6.692,0,0,1-1.244-.941,5.5,5.5,0,0,1-.971-1.236,5.514,5.514,0,0,1-.5-1.154,4.593,4.593,0,0,1-.208-1.185l-.021-13.261h.021V660.1h.041a5.784,5.784,0,0,1,1.893-3.626,5.776,5.776,0,0,1,1.758-1.079,5.769,5.769,0,0,1,2.1-.393,5.769,5.769,0,0,1,2.1.393,5.775,5.775,0,0,1,1.758,1.08,5.782,5.782,0,0,1,1.9,3.626h.041v4.189h.043l36.882,18.522Zm-41.56-23.158a2.243,2.243,0,0,0-2.24,2.24,2.243,2.243,0,0,0,2.24,2.24,2.243,2.243,0,0,0,2.24-2.24A2.242,2.242,0,0,0-1394.03,659.653Z" transform="translate(1401.005 -655.001)" fill="#f1e6d1"/>
          <g id="Group_1" data-name="Group 1" transform="translate(11.609 6.972)">
            <path id="Path_5" data-name="Path 5" d="M0-.081l3.407,2.3H0Z" transform="translate(0 0.081)" fill="#eb681f"/>
            <rect id="Rectangle_3" data-name="Rectangle 3" width="2.317" height="6.952" transform="translate(6.952 20.837)" fill="#eb681f"/>
            <rect id="Rectangle_4" data-name="Rectangle 4" width="2.317" height="6.952" transform="translate(0 20.837)" fill="#eb681f"/>
          </g>
        </g>
        <g id="Dog" transform="translate(7.308)">
          <path id="Subtraction_3" data-name="Subtraction 3" d="M-1324.33,697.951h0l-70.794-38.59a1.237,1.237,0,0,1-.3-.18,1.229,1.229,0,0,1-.418-.627h5.537a2.32,2.32,0,0,0,2.318-2.318V655h47.431v9.27a16.241,16.241,0,0,0,16.222,16.222Zm-23.175-38.238a2.243,2.243,0,0,0-2.24,2.24,2.243,2.243,0,0,0,2.24,2.24,2.242,2.242,0,0,0,2.24-2.24,2.243,2.243,0,0,0-2.24-2.24Z" transform="translate(1395.837 -655)" fill="#eb5"/>
        </g>
      </g>
      <path id="Artemis" d="M11.156-3.516H4.992L3.82,0H.082L6.434-17.062H9.691L16.078,0H12.34ZM5.941-6.363h4.266L8.063-12.75ZM24.814-9.5A9.2,9.2,0,0,0,23.6-9.6a2.481,2.481,0,0,0-2.52,1.3V0H17.689V-12.68h3.2l.094,1.512a3.138,3.138,0,0,1,2.824-1.746,3.549,3.549,0,0,1,1.055.152Zm6.51-6.293v3.117h2.168V-10.2H31.324v6.328a1.511,1.511,0,0,0,.27,1.008,1.354,1.354,0,0,0,1.031.3,5.4,5.4,0,0,0,1-.082V-.07a6.972,6.972,0,0,1-2.051.3q-3.562,0-3.633-3.6V-10.2H26.085V-12.68h1.852V-15.8ZM41.454.234a6.225,6.225,0,0,1-4.541-1.711,6.082,6.082,0,0,1-1.752-4.559v-.328A7.66,7.66,0,0,1,35.9-9.779a5.418,5.418,0,0,1,2.092-2.32,5.871,5.871,0,0,1,3.088-.814,5.262,5.262,0,0,1,4.1,1.641,6.667,6.667,0,0,1,1.494,4.652v1.383H38.6a3.146,3.146,0,0,0,.99,1.992,2.993,2.993,0,0,0,2.092.75,3.656,3.656,0,0,0,3.059-1.418L46.4-2.051A5.084,5.084,0,0,1,44.337-.369,6.767,6.767,0,0,1,41.454.234Zm-.387-10.418a2.116,2.116,0,0,0-1.635.683,3.535,3.535,0,0,0-.8,1.954h4.711v-.271a2.521,2.521,0,0,0-.609-1.748A2.183,2.183,0,0,0,41.068-10.184Zm10.939-2.5.105,1.418a4.456,4.456,0,0,1,3.645-1.652A3.382,3.382,0,0,1,59.12-10.98a4.354,4.354,0,0,1,3.809-1.934,3.782,3.782,0,0,1,3.07,1.2A5.521,5.521,0,0,1,67.007-8.1V0h-3.4V-8.086a2.414,2.414,0,0,0-.422-1.576,1.87,1.87,0,0,0-1.488-.5,2.114,2.114,0,0,0-2.109,1.453L59.6,0H56.214V-8.074a2.385,2.385,0,0,0-.434-1.594A1.888,1.888,0,0,0,54.3-10.16a2.195,2.195,0,0,0-2.086,1.2V0H48.831V-12.68ZM73.423,0h-3.4V-12.68h3.4Zm-3.6-15.961a1.668,1.668,0,0,1,.51-1.254,1.915,1.915,0,0,1,1.389-.492,1.919,1.919,0,0,1,1.383.492,1.658,1.658,0,0,1,.516,1.254A1.663,1.663,0,0,1,73.1-14.7a1.924,1.924,0,0,1-1.377.492,1.924,1.924,0,0,1-1.377-.492A1.663,1.663,0,0,1,69.825-15.961ZM83.319-3.5a1.091,1.091,0,0,0-.615-.979,6.989,6.989,0,0,0-1.975-.639q-4.523-.949-4.523-3.844a3.484,3.484,0,0,1,1.4-2.818,5.649,5.649,0,0,1,3.662-1.131,6.08,6.08,0,0,1,3.861,1.137,3.582,3.582,0,0,1,1.447,2.953H83.19a1.639,1.639,0,0,0-.469-1.2,1.984,1.984,0,0,0-1.465-.475,2.027,2.027,0,0,0-1.324.387,1.221,1.221,0,0,0-.469.984A1.044,1.044,0,0,0,80-8.221a5.485,5.485,0,0,0,1.8.6,14.693,14.693,0,0,1,2.133.568q2.684.984,2.684,3.41A3.307,3.307,0,0,1,85.124-.838,6.42,6.42,0,0,1,81.28.234a6.706,6.706,0,0,1-2.83-.568A4.748,4.748,0,0,1,76.51-1.893a3.621,3.621,0,0,1-.7-2.139h3.211a1.768,1.768,0,0,0,.668,1.383,2.649,2.649,0,0,0,1.664.48,2.452,2.452,0,0,0,1.471-.369A1.149,1.149,0,0,0,83.319-3.5Z" transform="translate(315 2742)" fill="#eb5"/>
    </g>
  </g>
</svg>
