<svg xmlns="http://www.w3.org/2000/svg" width="260" height="109" viewBox="0 0 260 109">
  <g id="full-logo" transform="translate(-140 -2653)">
    <g id="Rectangle_11" data-name="Rectangle 11" transform="translate(140 2653)" fill="#5457a6" stroke="#707070" stroke-width="1">
      <rect width="260" height="109" stroke="none"/>
      <rect x="0.5" y="0.5" width="259" height="108" fill="none"/>
    </g>
    <g id="Group_11" data-name="Group 11" transform="translate(-33 -26)">
      <g id="Animals" transform="translate(204 2696)">
        <g id="Mouse" transform="translate(0.014 51.062)">
          <path id="Subtraction_1" data-name="Subtraction 1" d="M-1368.668,678.084H-1401V659.609l19.112,9.525c-.156-.134-.308-.275-.452-.419a8,8,0,0,1-1.722-2.554,7.984,7.984,0,0,1-.631-3.127,7.981,7.981,0,0,1,.631-3.127,8.005,8.005,0,0,1,1.722-2.554,8.009,8.009,0,0,1,2.554-1.722,7.983,7.983,0,0,1,3.127-.631,7.984,7.984,0,0,1,3.127.631,8.008,8.008,0,0,1,2.554,1.722,8,8,0,0,1,1.722,2.554,7.981,7.981,0,0,1,.631,3.127,7.979,7.979,0,0,1-.631,3.127,8,8,0,0,1-1.722,2.554,8.007,8.007,0,0,1-2.554,1.722,7.987,7.987,0,0,1-3.127.631,8.085,8.085,0,0,1-1.715-.183l10.126,5.047a1.228,1.228,0,0,1,.567,1.2,1.222,1.222,0,0,1-.4.668,1.064,1.064,0,0,1-.589.283h0Zm-13.784-6.862a2.243,2.243,0,0,0-2.24,2.24,2.243,2.243,0,0,0,2.24,2.24,2.243,2.243,0,0,0,2.24-2.24A2.243,2.243,0,0,0-1382.452,671.222Z" transform="translate(1401 -655)" fill="#eb5"/>
          <ellipse id="Ellipse_1" data-name="Ellipse 1" cx="7.03" cy="7.03" rx="7.03" ry="7.03" transform="translate(18.393 1.004)" fill="#ed96ad"/>
        </g>
        <g id="Cat" transform="translate(39.419 41.715)">
          <path id="Cat-2" data-name="Cat" d="M-1361.6,687.445H-1387.1v-.052c-.384.035-.774.052-1.159.052a12.665,12.665,0,0,1-4.961-1,12.743,12.743,0,0,1-2.165-1.175,12.841,12.841,0,0,1-1.886-1.557,12.839,12.839,0,0,1-1.557-1.886A12.758,12.758,0,0,1-1400,679.66a12.666,12.666,0,0,1-1-4.961,12.666,12.666,0,0,1,1-4.961,12.748,12.748,0,0,1,1.175-2.165,12.853,12.853,0,0,1,1.556-1.886,12.848,12.848,0,0,1,1.886-1.556,12.743,12.743,0,0,1,2.165-1.175,12.667,12.667,0,0,1,4.961-1c.386,0,.776.017,1.159.052v-7l14.986,6.952h10.506Zm-37.08-13.9,2.318,4.635,2.318-4.635Zm11.587-4.558a2.243,2.243,0,0,0-2.24,2.24,2.243,2.243,0,0,0,2.24,2.24,2.243,2.243,0,0,0,2.24-2.24A2.243,2.243,0,0,0-1387.1,668.982Z" transform="translate(1401 -655)" fill="#f1e6d1"/>
        </g>
        <g id="Vogel" transform="translate(0 11.588)">
          <path id="Subtraction_2" data-name="Subtraction 2" d="M-1352.471,682.811h-43.412a4.39,4.39,0,0,1-1.082-.241,6.106,6.106,0,0,1-1.1-.5,6.694,6.694,0,0,1-1.244-.941,5.5,5.5,0,0,1-.971-1.236,5.513,5.513,0,0,1-.5-1.154,4.586,4.586,0,0,1-.208-1.185l-.021-13.261h.021V660.1h.041a5.784,5.784,0,0,1,1.893-3.626,5.774,5.774,0,0,1,1.758-1.079,5.768,5.768,0,0,1,2.1-.393,5.769,5.769,0,0,1,2.1.393,5.773,5.773,0,0,1,1.758,1.08,5.783,5.783,0,0,1,1.895,3.626h.041v4.189h.043l36.882,18.522Zm-41.56-23.158a2.243,2.243,0,0,0-2.24,2.24,2.243,2.243,0,0,0,2.24,2.24,2.243,2.243,0,0,0,2.24-2.24,2.242,2.242,0,0,0-2.24-2.24Z" transform="translate(1401.005 -655.001)" fill="#f1e6d1"/>
          <g id="Group_1" data-name="Group 1" transform="translate(11.609 6.972)">
            <path id="Path_5" data-name="Path 5" d="M0-.081l3.407,2.3H0Z" transform="translate(0 0.081)" fill="#eb681f"/>
            <rect id="Rectangle_3" data-name="Rectangle 3" width="2.317" height="6.952" transform="translate(6.952 20.837)" fill="#eb681f"/>
            <rect id="Rectangle_4" data-name="Rectangle 4" width="2.317" height="6.952" transform="translate(0 20.837)" fill="#eb681f"/>
          </g>
        </g>
        <g id="Dog" transform="translate(7.308 0)">
          <path id="Subtraction_3" data-name="Subtraction 3" d="M-1324.329,697.951h0l-70.794-38.59a1.233,1.233,0,0,1-.3-.18,1.23,1.23,0,0,1-.418-.627h5.537a2.32,2.32,0,0,0,2.318-2.318V655h47.431v9.27a16.241,16.241,0,0,0,16.222,16.222Zm-23.175-38.238a2.243,2.243,0,0,0-2.24,2.24,2.243,2.243,0,0,0,2.24,2.24,2.242,2.242,0,0,0,2.24-2.24,2.243,2.243,0,0,0-2.24-2.24Z" transform="translate(1395.837 -655)" fill="#eb5"/>
        </g>
      </g>
      <text id="Artemis" transform="translate(315 2742)" fill="#eb5" font-size="24" font-family="Roboto-Bold, Roboto" font-weight="700" letter-spacing="0.01em"><tspan x="0" y="0">Artemis</tspan></text>
    </g>
  </g>
</svg>
