<svg xmlns="http://www.w3.org/2000/svg" width="256.888" height="142" viewBox="0 0 256.888 142">
  <g id="logo" transform="translate(-130 -5)">
    <g id="Logo-2" data-name="Logo" transform="translate(130 5)">
      <rect id="bg" width="115" height="142" fill="#5457a6"/>
      <g id="Animals" transform="translate(12.097 27.76)">
        <g id="Mouse" transform="translate(0.016 59.31)">
          <path id="Subtraction_1" data-name="Subtraction 1" d="M-1363.6,681.7H-1401v-21.37l22.107,11.018c-.18-.155-.356-.318-.523-.485a9.26,9.26,0,0,1-1.992-2.954,9.235,9.235,0,0,1-.73-3.617,9.232,9.232,0,0,1,.73-3.617,9.259,9.259,0,0,1,1.992-2.954,9.263,9.263,0,0,1,2.954-1.991,9.233,9.233,0,0,1,3.617-.73,9.232,9.232,0,0,1,3.617.73,9.26,9.26,0,0,1,2.954,1.991,9.262,9.262,0,0,1,1.992,2.954,9.235,9.235,0,0,1,.73,3.617,9.237,9.237,0,0,1-.73,3.617,9.263,9.263,0,0,1-1.992,2.954,9.261,9.261,0,0,1-2.954,1.992,9.235,9.235,0,0,1-3.617.73,9.358,9.358,0,0,1-1.984-.212l11.713,5.838a1.421,1.421,0,0,1,.656,1.391,1.414,1.414,0,0,1-.46.773,1.23,1.23,0,0,1-.682.327h0Zm-15.945-7.937a2.594,2.594,0,0,0-2.591,2.591,2.594,2.594,0,0,0,2.591,2.591,2.594,2.594,0,0,0,2.591-2.591A2.594,2.594,0,0,0-1379.546,673.764Z" transform="translate(1401 -655)" fill="#eb5"/>
          <circle id="Ellipse_1" data-name="Ellipse 1" cx="8.131" cy="8.131" r="8.131" transform="translate(21.275 1.162)" fill="#ed96ad"/>
        </g>
        <g id="Cat" transform="translate(45.128 48.498)">
          <path id="Cat-2" data-name="Cat" d="M-1355.429,692.529h-29.487v-.06c-.444.04-.9.06-1.34.06a14.653,14.653,0,0,1-5.739-1.159,14.742,14.742,0,0,1-2.5-1.359,14.85,14.85,0,0,1-2.182-1.8,14.848,14.848,0,0,1-1.8-2.182,14.737,14.737,0,0,1-1.359-2.5,14.649,14.649,0,0,1-1.159-5.739,14.649,14.649,0,0,1,1.159-5.739,14.731,14.731,0,0,1,1.359-2.5,14.845,14.845,0,0,1,1.8-2.182,14.842,14.842,0,0,1,2.182-1.8,14.741,14.741,0,0,1,2.5-1.359,14.651,14.651,0,0,1,5.739-1.159c.447,0,.9.02,1.34.06V655l17.335,8.042h12.152Zm-42.891-16.084,2.681,5.361,2.681-5.361Zm13.4-5.272a2.594,2.594,0,0,0-2.591,2.591,2.594,2.594,0,0,0,2.591,2.591,2.594,2.594,0,0,0,2.591-2.591A2.594,2.594,0,0,0-1384.916,671.173Z" transform="translate(1401 -655)" fill="#f1e6d1"/>
        </g>
        <g id="Vogel" transform="translate(0 13.476)">
          <path id="Subtraction_2" data-name="Subtraction 2" d="M-1344.866,687.169h-50.215a5.078,5.078,0,0,1-1.251-.279,7.07,7.07,0,0,1-1.27-.584,7.738,7.738,0,0,1-1.439-1.089,6.361,6.361,0,0,1-1.124-1.43,6.384,6.384,0,0,1-.576-1.334,5.309,5.309,0,0,1-.241-1.371l-.024-15.339h.024V660.9h.048a6.688,6.688,0,0,1,2.19-4.194,6.677,6.677,0,0,1,2.033-1.249,6.674,6.674,0,0,1,2.43-.454,6.673,6.673,0,0,1,2.43.454,6.676,6.676,0,0,1,2.033,1.249,6.689,6.689,0,0,1,2.192,4.194h.048v4.845h.049l42.661,21.425Zm-48.073-26.786a2.594,2.594,0,0,0-2.591,2.591,2.594,2.594,0,0,0,2.591,2.591,2.594,2.594,0,0,0,2.591-2.591,2.594,2.594,0,0,0-2.591-2.591Z" transform="translate(1401.005 -655.001)" fill="#f1e6d1"/>
          <g id="Group_1" data-name="Group 1" transform="translate(13.428 8.065)">
            <path id="Path_5" data-name="Path 5" d="M0-.081,3.941,2.577H0Z" transform="translate(0 0.081)" fill="#eb681f"/>
            <rect id="Rectangle_3" data-name="Rectangle 3" width="2.681" height="8.042" transform="translate(8.042 24.103)" fill="#eb681f"/>
            <rect id="Rectangle_4" data-name="Rectangle 4" width="2.681" height="8.042" transform="translate(0 24.103)" fill="#eb681f"/>
          </g>
        </g>
        <g id="Dog" transform="translate(8.453)">
          <path id="Subtraction_3" data-name="Subtraction 3" d="M-1313.592,704.681h0l-81.425-44.637a1.417,1.417,0,0,1-.339-.208,1.422,1.422,0,0,1-.481-.726h6.368a2.676,2.676,0,0,0,2.666-2.681V655h54.553v10.723a18.733,18.733,0,0,0,18.658,18.764Zm-26.655-44.231a2.587,2.587,0,0,0-2.577,2.591,2.587,2.587,0,0,0,2.577,2.591,2.587,2.587,0,0,0,2.577-2.591A2.587,2.587,0,0,0-1340.247,660.451Z" transform="translate(1395.837 -655)" fill="#eb5"/>
        </g>
      </g>
    </g>
    <text id="Artemis" transform="translate(269.888 76)" fill="#eb5" font-size="32" font-family="Roboto-Bold, Roboto" font-weight="700" letter-spacing="0.01em"><tspan x="0" y="0">Artemis</tspan></text>
  </g>
</svg>
